<?xml version="1.0" encoding="utf-8"?>
<!-- Generator: Adobe Illustrator 23.0.1, SVG Export Plug-In . SVG Version: 6.00 Build 0)  -->
<svg version="1.1" id="Layer_1" xmlns="http://www.w3.org/2000/svg" xmlns:xlink="http://www.w3.org/1999/xlink" x="0px" y="0px"
	 viewBox="0 0 121.4 121.4" style="enable-background:new 0 0 121.4 121.4;" xml:space="preserve">
<style type="text/css">
	.st0{fill:#FFFFFF;}
</style>
<g>
	<circle class="st0" cx="60.2" cy="61.2" r="10.3"/>
	<path class="st0" d="M73.1,35.8H47.3c-3.8,0-7,1.2-9.1,3.3c-2.1,2.1-3.3,5.4-3.3,9.1v25.8c0,3.8,1.2,7,3.5,9.4
		c2.3,2.1,5.4,3.3,9.1,3.3h25.6c3.8,0,7-1.2,9.1-3.3c2.3-2.1,3.5-5.4,3.5-9.1V48.5c0-3.8-1.2-6.8-3.3-9.1
		C80.2,37,77.1,35.8,73.1,35.8z M60.2,77.1c-8.9,0-15.9-7.3-15.9-15.9c0-8.9,7.3-15.9,15.9-15.9s16.2,7,16.2,15.9
		S69.1,77.1,60.2,77.1z M76.9,48.3c-2.1,0-3.8-1.6-3.8-3.8c0-2.1,1.6-3.8,3.8-3.8c2.1,0,3.8,1.6,3.8,3.8
		C80.6,46.6,79,48.3,76.9,48.3z"/>
	<path class="st0" d="M60.7,3C28.8,3,3,28.8,3,60.7s25.8,57.7,57.7,57.7s57.7-25.8,57.7-57.7C118.6,28.8,92.6,3,60.7,3z M91.4,74.3
		c0,5.4-1.9,10.1-5.2,13.4c-3.3,3.3-8,4.9-13.1,4.9H47.6c-5.2,0-9.9-1.6-13.1-4.9c-3.5-3.3-5.2-8-5.2-13.4V48.5
		c0-10.8,7.3-18.3,18.3-18.3h25.8c5.4,0,9.9,1.9,13.1,5.2c3.3,3.3,4.9,7.7,4.9,13.1C91.4,48.5,91.4,74.3,91.4,74.3z"/>
</g>
</svg>
