<?xml version="1.0" encoding="utf-8"?>
<!-- Generator: Adobe Illustrator 23.0.1, SVG Export Plug-In . SVG Version: 6.00 Build 0)  -->
<svg version="1.1" id="Layer_1" xmlns="http://www.w3.org/2000/svg" xmlns:xlink="http://www.w3.org/1999/xlink" x="0px" y="0px"
	 viewBox="0 0 120.1 119.9" style="enable-background:new 0 0 120.1 119.9;" xml:space="preserve">
<style type="text/css">
	.st0{fill:#FFFFFF;}
</style>
<path class="st0" d="M60,2.4C28.1,2.4,2.4,28.1,2.4,59.9s25.7,57.5,57.5,57.5s57.8-25.7,57.8-57.5S91.8,2.4,60,2.4z M89.2,48.3
	c0,0.7,0,1.2,0,1.9c0,19.2-14.5,41.4-41.4,41.4c-8.2,0-15.9-2.3-22.2-6.5c1.2,0.2,2.3,0.2,3.5,0.2c6.8,0,13.1-2.3,18-6.3
	c-6.3-0.2-11.7-4.2-13.6-10.1c0.9,0.2,1.9,0.2,2.8,0.2c1.4,0,2.6-0.2,3.7-0.5c-6.5-1.4-11.7-7.2-11.7-14.3v-0.2
	c1.9,1.2,4.2,1.6,6.5,1.9c-4-2.6-6.5-7-6.5-12.2c0-2.6,0.7-5.1,1.9-7.2c7.2,8.9,17.8,14.5,29.9,15.2c-0.2-1.2-0.5-2.1-0.5-3.3
	c0-8,6.5-14.5,14.5-14.5c4.2,0,8,1.9,10.5,4.7c3.3-0.7,6.3-1.9,9.1-3.5c-1.2,3.5-3.3,6.3-6.3,8c3-0.2,5.8-1.2,8.4-2.3
	C94.3,43.6,92,46.2,89.2,48.3z"/>
</svg>
