<?xml version="1.0" encoding="utf-8"?>
<!-- Generator: Adobe Illustrator 23.0.1, SVG Export Plug-In . SVG Version: 6.00 Build 0)  -->
<svg version="1.1" id="Youtube" xmlns="http://www.w3.org/2000/svg" xmlns:xlink="http://www.w3.org/1999/xlink" x="0px" y="0px"
	 viewBox="0 0 122 122" style="enable-background:new 0 0 122 122;" xml:space="preserve">
<style type="text/css">
	.st0{fill:#FFFFFF;}
</style>
<path class="st0" d="M61,3C29,3,3,29,3,61s26,58,58,58s58-26,58-58C119.1,29,93.1,3,61,3z M93.5,74c0,4.4-3.6,8.1-8,8.1
	c0,0-6.9,1-24.8,1c-18.1,0-24.4-1-24.4-1c-4.4,0-8.1-3.6-8.1-8.1V47.5c0-4.4,3.6-8,8.1-8c0,0,6.3-1,24.4-1c18,0,24.9,1,24.9,1
	c4.4,0,8,3.6,8,8C93.5,47.5,93.5,74,93.5,74z"/>
<polygon class="st0" points="51,73.5 73,60.8 51,48.1 "/>
</svg>
